<svg xmlns="http://www.w3.org/2000/svg" viewBox="0 0 1024 1024"><title>StakeHolDrop</title><defs><clipPath id="f"><rect width="1024" height="1024" rx="184"/></clipPath><filter id="o" filterUnits="userSpaceOnUse" x="0" y="0" width="1024" height="1024" color-interpolation-filters="sRGB"><feGaussianBlur in="SourceAlpha" stdDeviation="22"/><feOffset dx="18" dy="24" result="b"/><feFlood flood-color="#371E5B" flood-opacity="0.7"/><feComposite in2="b" operator="in" result="sh"/><feMerge><feMergeNode in="sh"/><feMergeNode in="SourceGraphic"/></feMerge></filter></defs><g clip-path="url(#f)"><rect width="1024" height="1024" fill="#8448D9"/><g filter="url(#o)"><g transform="translate(512 512) scale(1.00000) translate(-512 -512)"><svg x="141.219" y="141.219" width="882.813" height="882.813" viewBox="0 0 200 200" overflow="visible"><g fill="#fff">
<rect x="20" y="20" width="36" height="36" rx="11"/><rect x="66" y="20" width="36" height="36" rx="11"/><rect x="112" y="20" width="36" height="36" rx="11"/>
<rect x="20" y="66" width="36" height="36" rx="11"/><rect x="66" y="66" width="36" height="36" rx="11"/>
<rect x="20" y="112" width="36" height="36" rx="11"/>
<rect x="112" y="66" width="36" height="36" rx="11" opacity="0.55"/>
<rect x="66" y="112" width="36" height="36" rx="11" opacity="0.55"/><rect x="112" y="112" width="36" height="36" rx="11" opacity="0.55"/>
</g></svg></g></g></g></svg>